<svg id="onepiece" xmlns="http://www.w3.org/2000/svg" viewBox="0 0 1000 970"><defs><style>.cls-1{fill:#fff;}.cls-2{fill:gold;}.cls-3{fill:red;}</style></defs><title>bg</title><g id="bone"><g id="bone_r" data-name="bone r"><g id="bone_b" data-name="bone b"><path class="cls-1" d="M-253.14,327.59q-.6-.66-1.23-1.29a5,5,0,0,1,.12-7.19l643-589.18a5,5,0,0,1,7.07.31l1.34,1.48a50,50,0,0,0,72.11,1.69,50.18,50.18,0,0,0,3.59-67,50,50,0,0,0-48.49-17.56,5,5,0,0,1-5.81-6.34,50,50,0,0,0-13.27-49.83,50.16,50.16,0,0,0-67-2.26,50,50,0,0,0-4.6,72l1.35,1.47a5,5,0,0,1-.31,7.07l-643,589.17a5,5,0,0,1-7.17-.51c-.39-.44-.78-.89-1.18-1.33a50,50,0,0,0-72.1-1.69,50.17,50.17,0,0,0-3.59,67,50,50,0,0,0,48.48,17.56,5,5,0,0,1,5.82,6.34,50,50,0,0,0,13.26,49.83,50.17,50.17,0,0,0,67,2.26A50,50,0,0,0-253.14,327.59Z" transform="translate(500 480)"/><rect id="bone-2" data-name="bone" x="-15.76" y="-505" width="112" height="1000" transform="translate(509.37 448.71) rotate(47.5)"/><circle id="bone_ur" data-name="bone ur" cx="934" cy="177.94" r="66"/><circle id="bone_ul" data-name="bone ul" cx="870.49" cy="108.63" r="66"/><circle id="bone_dr" data-name="bone dr" cx="209.99" cy="841.37" r="66"/><circle id="bone_dl" data-name="bone dl" cx="146.49" cy="772.06" r="66"/></g><g id="bone_w" data-name="bone w"><rect id="bone-3" data-name="bone" class="cls-1" x="0.24" y="-505" width="80" height="1000" transform="translate(509.37 448.71) rotate(47.5)"/><circle id="bone_ur-2" data-name="bone ur" class="cls-1" cx="934" cy="177.94" r="50"/><circle id="bone_ul-2" data-name="bone ul" class="cls-1" cx="870.49" cy="108.63" r="50"/><circle id="bone_dr-2" data-name="bone dr" class="cls-1" cx="209.99" cy="841.37" r="50"/><circle id="bone_dl-2" data-name="bone dl" class="cls-1" cx="146.49" cy="772.06" r="50"/></g></g><g id="bone_l" data-name="bone l"><g id="bone_b-2" data-name="bone b"><path class="cls-1" d="M316.65,258.28c-.4.44-.79.88-1.18,1.33a5,5,0,0,1-7.17.51L-334.67-329a5,5,0,0,1-.31-7.07l1.35-1.47a50,50,0,0,0-4.6-72,50.16,50.16,0,0,0-67,2.26,50,50,0,0,0-13.27,49.83,5,5,0,0,1-5.81,6.34,50,50,0,0,0-48.49,17.56,50.18,50.18,0,0,0,3.59,67,50,50,0,0,0,72.1-1.69l1.35-1.48a5,5,0,0,1,7.07-.31l643,589.18a5,5,0,0,1,.12,7.19c-.42.42-.82.85-1.23,1.29A50,50,0,1,0,338,347.47a5,5,0,0,1,5.82-6.34,50,50,0,1,0-27.21-82.85Z" transform="translate(500 480)"/><rect id="bone-4" data-name="bone" x="-96.24" y="-505" width="112" height="1000" transform="translate(490.63 448.71) rotate(-47.5)"/><circle id="bone_ur-3" data-name="bone ur" cx="129.51" cy="108.63" r="66"/><circle id="bone_ul-3" data-name="bone ul" cx="66" cy="177.94" r="66"/><circle id="bone_dr-3" data-name="bone dr" cx="853.51" cy="772.06" r="66"/><circle id="bone_dl-3" data-name="bone dl" cx="790.01" cy="841.37" r="66"/></g><g id="bone_w-2" data-name="bone w"><rect id="bone-5" data-name="bone" class="cls-1" x="-80.24" y="-505" width="80" height="1000" transform="translate(490.63 448.71) rotate(-47.5)"/><circle id="bone_ur-4" data-name="bone ur" class="cls-1" cx="129.51" cy="108.63" r="50"/><circle id="bone_ul-4" data-name="bone ul" class="cls-1" cx="66" cy="177.94" r="50"/><circle id="bone_dr-4" data-name="bone dr" class="cls-1" cx="853.51" cy="772.06" r="50"/><circle id="bone_dl-4" data-name="bone dl" class="cls-1" cx="790.01" cy="841.37" r="50"/></g></g></g><g id="tooth"><path id="tooth_w" data-name="tooth w" class="cls-1" d="M0,479.89s-277.56,16-129.78-340.5H129.78C277.56,495.89,0,479.89,0,479.89" transform="translate(500 480)"/><path id="tooth_b" data-name="tooth b" d="M137.17,138.32l-14.78,6.13q19.71,47.55,30.37,89c-19.17,13-39.87,22.25-59.69,28.87-6.84-40.27-14.66-81.08-15.21-84l-15.72,3c.14.73,8.44,44.05,15.48,85.67A340.74,340.74,0,0,1,8,278.55V192.89H-8v85.66a340,340,0,0,1-69.62-11.49c7-41.62,15.34-84.94,15.48-85.67l-15.72-3c-.55,2.9-8.37,43.71-15.21,84-19.82-6.61-40.52-15.89-59.69-28.87q10.63-41.4,30.37-89l-14.78-6.13c-53.16,128.24-58.18,224.13-14.92,285C-131,453.05-97.86,474-56.32,483.86a226.64,226.64,0,0,0,51,6.14c2.71,0,4.55-.07,5.37-.1s2.66.1,5.37.1a226.64,226.64,0,0,0,51-6.14C97.86,474,131,453.05,152.09,423.33,195.35,362.45,190.33,266.56,137.17,138.32Zm19.54,111.73a378.24,378.24,0,0,1,6.63,39.63,295.83,295.83,0,0,1-61,34.15C101,312,98.57,295.77,95.75,278.48A267,267,0,0,0,156.71,250.05Zm-76.43,33c3,18.52,5.48,35.46,6.54,46.6a273.36,273.36,0,0,1-34.17,9.42,231.84,231.84,0,0,1-44.65,5V294.63A346.09,346.09,0,0,0,80.28,283.09ZM-8,294.63v49.46a231.84,231.84,0,0,1-44.65-5,273.36,273.36,0,0,1-34.17-9.42c1-11.14,3.53-28.08,6.54-46.6A346.09,346.09,0,0,0-8,294.63Zm-87.75-16.15c-2.82,17.29-5.23,33.49-6.55,45.35a295.83,295.83,0,0,1-61-34.15,378.24,378.24,0,0,1,6.63-39.63A267,267,0,0,0-95.75,278.48ZM139.12,414c-19,26.82-48,45.06-86,54.21A204.13,204.13,0,0,1,.45,473.9h-.9a203.61,203.61,0,0,1-52.66-5.72c-38-9.15-67-27.39-86-54.21-17.79-25.09-26.53-57.74-26-97q.06-4.31.27-8.73A303.74,303.74,0,0,0-55.2,354.92,243.56,243.56,0,0,0-7.39,360.1c3.73,0,6.25-.12,7.39-.19s3.66.19,7.39.19a243.56,243.56,0,0,0,47.81-5.18A303.74,303.74,0,0,0,164.82,308.2q.21,4.43.27,8.73C165.65,356.23,156.91,388.88,139.12,414Z" transform="translate(500 480)"/></g><path id="player" d="M204,304H796a0,0,0,0,1,0,0V681a16,16,0,0,1-16,16H220a16,16,0,0,1-16-16V304A0,0,0,0,1,204,304Z"/><g id="hat"><path id="hat_b" data-name="hat b" d="M-286-194c0-157.95,128.05-286,286-286S286-351.95,286-194Z" transform="translate(500 480)"/><path id="hat_y" data-name="hat y" class="cls-2" d="M-270-194c0-149.12,120.88-270,270-270S270-343.12,270-194Z" transform="translate(500 480)"/><path id="hat_r" data-name="hat r" class="cls-3" d="M250.05-296H-250A269.19,269.19,0,0,0-270-194H270A269.19,269.19,0,0,0,250.05-296Z" transform="translate(500 480)"/><rect id="hat_d_b" data-name="hat d b" x="76" y="252" width="848" height="68" rx="34"/><rect id="hat_d_y" data-name="hat d y" class="cls-2" x="92" y="268" width="816" height="36" rx="18"/><rect id="hat_u" data-name="hat u" x="245" y="168" width="510" height="16"/></g><g id="onepiece-2" data-name="onepiece"><path d="M108.17-376.72c.88-2.42,1.62-4.9,2.68-7.24,4-8.85,10.76-14.75,19.85-18.05.71-.26,1.43-.52,2.13-.81a3.61,3.61,0,0,0,.66-.53l-1.42-2.38.2-.54,12,2.14-8.14,9.7-.44-.16c-.06-1.2-.13-2.41-.21-3.87a33.62,33.62,0,0,0-8.82,6.81,31.21,31.21,0,0,0-7.88,15.18c-.72,3.2-.44,3.51,2.87,3.31.56,0,1.13-.11,1.76-.17.67-1.95-.68-5.25,3.25-5,3.47.21,2,3.17,2.92,5.37.68-.48,1.44-.77,1.78-1.32,1.17-1.85,2.58-3.16,4.94-2.84,2.51.34,3.89,2,4.65,4.25a10.77,10.77,0,0,1-.87,9,1.78,1.78,0,0,0,.28,2.48,10.18,10.18,0,0,1,1.66,2.31c1.35,2.57,2.62,5.18,4,7.85-2.16,1.74-4.36,3.17-7.31,1.62-.23-.12-1.07.39-1.24.77-1.13,2.61-2.16,5.27-3.29,8.06l1.72.81.38-3.08.48-.22c2.32,2.61,4.64,5.22,7.07,7.93l-10.43,2.73-.35-.46,1.87-3.13c-1.69-.8-3-1.07-3.91,1a27.24,27.24,0,0,1-2,3.35c4.4,0,8.45,0,12.5,0,2.48,0,3.69,1,3.7,2.84s-1.4,3-3.8,3c-4.83,0-9.66.09-14.48,0a6,6,0,0,0-4.45,1.69,33,33,0,0,1-12.91,7.46,29.07,29.07,0,0,1-22.83-2.36c-3-1.58-5.84-3.31-8.69-5.1a8.84,8.84,0,0,0-5-1.53c-7.56.1-15.12,0-22.67.17a4.53,4.53,0,0,0-3,1.46c-3.34,4-6.75,5-11.62,2.95a48.72,48.72,0,0,1-5.74-3,10.06,10.06,0,0,0-5.69-1.59c-7.1.23-14.22.14-21.33.14-1.66,0-2.86.2-3.71,2.09-1.47,3.28-5.5,4.54-9.39,3.07-3-1.11-5.75-2.67-8.66-3.92a9.22,9.22,0,0,0-3.42-.89c-9.08-.09-18.16-.13-27.24-.05a4,4,0,0,0-2.7,1.33c-3.12,3.9-5.63,4.84-10.47,3.51a25.31,25.31,0,0,1-5-1.69c-6.16-3.21-12.77-3.17-19.45-3.11-10.73.1-21.47,0-32.2-.06a4,4,0,0,0-3.16,1.23c-1.92,1.9-3.81,3.68-2.18,6.39-3.59,2.6-6.14-.47-9.18-1,.07-1.41-.89-1.79-2.08-2.51-1.75-1.05-3-3-4.43-4.52a13.56,13.56,0,0,0-2.55-2.53c-2.75-1.62-3.9-4.48-2.7-7.28,1.13-2.64,3.78-3.77,6.85-2.69a2,2,0,0,0,2.44-.62c1.65-1.67,3.26-3.4,5-4.93,1.27-1.11,1.31-2,.35-3.32a34.13,34.13,0,0,1-5.84-13.12,42.1,42.1,0,0,1-.79-5.45c-.15-1.84.26-3.89-2.51-3.86,0-.38,0-.58.07-.6,2.3-.91,2.77-2.8,3.14-5A33.81,33.81,0,0,1-130-390.33a1.69,1.69,0,0,0-.21-2.71c-1.82-1.77-3.48-3.7-5.33-5.44a2.62,2.62,0,0,0-2.06-.53c-3.08.75-5.91-.37-7.08-3s-.22-5.22,2.36-7.09a26.29,26.29,0,0,0,2.71-2.77c.62-.63,1.19-1.49,1.95-1.75,2.58-.9,5.24-2.23,7.87-2.24,21.08-.05,42.17.19,63.26.28,13.72.06,27.44,0,41.16,0a10.23,10.23,0,0,1,2.8.39,2.61,2.61,0,0,1,2,3.07,2.83,2.83,0,0,1-2.62,2.59,9.75,9.75,0,0,1-1.53,0H-58.34a2.6,2.6,0,0,0-1.51.34,3.78,3.78,0,0,0,.85.43,6,6,0,0,1,4.47,4,2.55,2.55,0,0,0,1.77,1.49c1.82,0,1.8,1.12,2,2.36.71,4.77,1.48,9.53,2.24,14.29a1,1,0,0,0,.59.8c-.28-5.68-.55-11.36-.84-17.17.66-.06,1.21-.15,1.76-.15q17.24,0,34.49.1a22.21,22.21,0,0,1,4.17.23c.72.14,1.86.87,1.88,1.37.14,4.93.08,9.86.08,14.8l-.62.13a14.84,14.84,0,0,1-.7-1.89c-1-4.27-4-7-7.87-6.89a8,8,0,0,0-7.63,7.43c-.52,5.16-.6,10.36-.89,15.79,3.1.25,5.81-.11,7.56-2.3,1.57-2,2.51-4.43,3.84-6.89.31,7.41.05,14.76-.24,22.1l-.57.11c-.23-.85-.47-1.69-.69-2.54a8.36,8.36,0,0,0-7.64-6.37c-1.28-.08-2,.23-2,1.74.2,4.88.22,9.77.52,14.65.22,3.56,3.33,6.9,6.31,7.19a8.52,8.52,0,0,0,8.57-5.65c.25-.74.53-1.48.79-2.22l.5.09v16.87H-22.06c2.93,2.24,5.84,3.93,9.69,3.81,7.93-.27,15.87-.27,23.81-.13,2.6,0,3.77-1.14,4.7-3.56H-2c.24-.58.27-.92.42-1,3-1.27,3.32-4,3.37-6.68q.43-23,.72-45.9c0-2-.25-3.93-.27-5.9,0-2.95.14-5.93-2.91-7.85l.22-.54c1.9,0,3.8,0,5.7,0,3.3,0,6.6.27,9.89.13a11.82,11.82,0,0,1,12.46,11.92c.21,8.87-.14,17.77-.62,26.64-.3,5.63-4.55,9.68-10.11,10.48-1.37.2-2.76.32-4.32.5a12.33,12.33,0,0,0-.18,1.82c.19,3.61.33,7.23.65,10.83s2.91,5.14,6.28,4.15a6.22,6.22,0,0,1,5.66.76c4.43,3.34,9.31,4.37,14.81,4.09,6.77-.35,13.58-.16,20.38-.1,2.52,0,3-2.14,4.52-3.63H53.59c-1.14,0-2.29,0-3.43.05a12.9,12.9,0,0,1-8-1.92,5.28,5.28,0,0,0-3.57-.23c-2.15.51-4.21,1.4-6.33,2.07-1.14.36-2.53.85-3.09-.73s.71-2.08,1.91-2.51c4.88-1.76,4.9-1.77,4.74-6.84-.08-2.47-.24-4.94-.37-7.64a14.36,14.36,0,0,0-1.92-.07c-1.77.17-1.91-.77-1.53-2.12.57-2.06,1.15-4.12,1.77-6.37l-3.48-.44,2.2-2.95-1.76-.53a3,3,0,0,1,.44-.86c1.36-1.37,1.45-2.36,0-4.07-5.36-6.32-3-15.53,4.6-18.85l2.22-1c-1.12-1.9-2.15-3.8-3.35-5.59-.28-.41-1.13-.46-1.73-.65l-3.76-1.12a6.22,6.22,0,0,1,1.29-.69,10.64,10.64,0,0,0,7-3.29,4.15,4.15,0,0,1,6.41.23c1.46,2,3.34,2.48,5.48,2.81.79.13,1.57.33,2.72.57-2.2.9-4.3,1.29-5.73,2.49s-2.31,3.25-3.54,5.1c4.39,1.65,8.2,4.09,9.42,9.12s-.28,9.13-4.06,12.62c.36.64.71,1.22,1,1.82.17.34.47,1,.4,1-1.92,1.4.34,2.47.29,4l-2.84.22c.43,2.17.77,4.29,1.29,6.36.37,1.47,0,2.31-1.55,2.19-1.38-.11-1.65.71-1.74,1.7-.31,3.22-.6,6.44-.8,9.67a2.08,2.08,0,0,0,.8,1.44,31.47,31.47,0,0,0,3.55,2.5c1.82,1.06,2.93.67,3.48-1.39a23.35,23.35,0,0,0,.76-5.26c.35-12.31.71-24.62.89-36.93.08-4.94-.39-9.89-.44-14.84,0-2.88-1.12-4.73-4-5.4a1.56,1.56,0,0,1-.52-.25,4.07,4.07,0,0,1-.48-.52c1.37-.07,2.53-.18,3.69-.19,9-.06,17.91-.07,26.87-.15,1.45,0,1.85.62,1.82,2-.07,3.08,0,6.16,0,9.15a41.56,41.56,0,0,1,2-4.29,13.8,13.8,0,0,1,15.06-6.39,13.72,13.72,0,0,1,10.55,13.09c.13,4.17-.06,8.36-.1,12.55H94.53a3.66,3.66,0,0,1,.5-.76c3.5-3.06,2.32-6.92,1.67-10.6a2.89,2.89,0,0,0-2-1.82c-1.28-.1-2.16.91-2.39,2.26a14.58,14.58,0,0,0-.25,2.08c-.25,9.57-.51,19.13-.7,28.7a20.22,20.22,0,0,0,.49,5.28c.22.85,1.33,2,2,2,.88,0,2.45-1,2.52-1.68a83.94,83.94,0,0,0,.23-9.78c0-.57-.76-1.12-1.17-1.68L94.35-364H108c-.08-1.39-.23-2.59-.2-3.78C107.88-370.8,108-373.76,108.17-376.72Zm-33.86-5.06V-359l-.66.12c-.28-2.73-.84-5.3-3.15-7.06s-5-1.95-7.74-1.52a3.49,3.49,0,0,0-.19.82c.1,5.08-.08,10.19.42,15.22.62,6.28,7.63,9.36,12.34,5.66A13,13,0,0,0,80-355.6c.38-7.47,0-15,.2-22.47.14-4.11.08-8.06-1.71-11.84a8.36,8.36,0,0,0-8.92-4.74,7.9,7.9,0,0,0-6.32,7.74c-.1,2.92-.28,5.84-.36,8.75-.05,2,0,4,0,5.94C69.22-371.55,71.08-373.13,74.31-381.78Zm-170.57,9.21-.07.72a81.55,81.55,0,0,0-9.12.06c-5.21.59-10.41,1.43-15.56,2.43-2.92.56-3.35,1.52-3,4.48,1.11,9.74,9.42,18.09,19.49,19.64,15.72,2.42,27.74-11.13,27.08-22.57-.08-1.45-.44-2.28-1.92-2.48ZM76.06-335.13l-.28.65c2.11.88,4.2,2.47,6.32,2.51,12.19.24,24.38.12,36.57.1.61,0,1.43,0,1.78-.35a24.26,24.26,0,0,0,5-7.42c-8.77-5.37-14.64-12.7-17.17-22.6-.12,1.27-.09,2.47-.12,3.68-.11,3.93,0,7.88-.43,11.78-.61,5.67-5.73,10.3-11.87,11.18A13.58,13.58,0,0,1,82.07-343a50,50,0,0,1-1.74-5.4,82.65,82.65,0,0,0-.42,9.43c0,3.38-.08,3.38-3.34,3.67A2.11,2.11,0,0,0,76.06-335.13Zm-198.73-62.41c12.27-8.72,29.39-10.24,44.31.25,2.53-2.43,5.14-4.83,7.61-7.37,1.38-1.42-.47-2.64-.64-4,0-.33-1-.78-1.61-.78q-27-.13-53.92-.12c-.76,0-2.06.39-2.16.83-.34,1.39-1.73,2.79-.1,4.37C-126.94-402.19-124.87-399.86-122.67-397.54Zm41.81,17.21c-4-7.5-13.51-12.15-22.28-11.09-7.72.94-13.69,4.62-18.15,11.57C-107.58-382-94.35-382.78-80.86-380.33Zm45.8-20.29-.61.13c-2.09,11.86-1.81,58.66.66,63.28a15.44,15.44,0,0,0,1.35-4.14c.25-1.81.21-3.67.31-5.5a328.24,328.24,0,0,0-.8-48.68C-34.32-397.24-34.75-398.92-35.06-400.62Zm-100.67,30v.53c2.92.78,5.82,1.57,8.74,2.31a1.11,1.11,0,0,0,1-.28c1.38-2.26,3.76-2.87,6-3.21,6-.92,12-1.77,18.08-2.22A83,83,0,0,1-79.59-372c2.09.41,4,1.09,4.11,3.87l9.85-2.11-.06-.85A125,125,0,0,0-135.73-370.58ZM118.09-367a33.39,33.39,0,0,0,10.45,22c1-2.3,1.87-4.24,2.52-6.26a3.35,3.35,0,0,0-.27-2.59c-1.85-2.61-2-5.4-1.34-8.35.34-1.58.75-3.14,1.14-4.71l-.51-.37c-.33.33-.82.61-1,1a10.46,10.46,0,0,0-.14,1.88c-.15,1.38-.61,2.43-2.32,2.35-2.16-.1-3-.71-3.15-2.45-.06-.85,0-1.7,0-2.47ZM12.65-394.67c-.29,10.88-.58,21.61-.86,32.35,3.22,0,5.2-1.57,5.27-4.2q.3-11.78.38-23.57C17.46-392.67,15.78-394.3,12.65-394.67Zm-137.73,54.6-4-4.31c-2.25,2.53-4.41,4.94-6.54,7.37a2.06,2.06,0,0,1-3.1.49,3,3,0,0,0-4,.45,3.37,3.37,0,0,0-1.11,3.93,3.47,3.47,0,0,0,3.49,2.39,12.6,12.6,0,0,1,1.57.22,15.15,15.15,0,0,0,0,1.93c.28,1.75,1.33,3.1,3,3.14a4.93,4.93,0,0,0,3.34-1.51c1.2-1.29.82-3-.13-4.4-.82-1.18-.47-1.83.44-2.7C-129.66-335.38-127.34-337.79-125.08-340.07Zm-13.39-67.67a2.07,2.07,0,0,1-.58.12,3.41,3.41,0,0,0-3.95,2.2,3,3,0,0,0,.9,3.76,3.41,3.41,0,0,0,4.52.37c1-.63,1.51-.26,2.23.46,2.55,2.53,5.17,5,7.65,7.34l3.39-3.12c-2.17-2.29-4.2-4.55-6.36-6.67-1.41-1.38-2.46-2.56-1.08-4.68a2.79,2.79,0,0,0-.8-3.78,5.2,5.2,0,0,0-3.45-.75,3.08,3.08,0,0,0-2.46,3.19C-138.49-408.81-138.47-408.31-138.47-407.74Zm70.88,2.12L-76.75-396l3.79,3.61,8.16-9.26-1.49-1,.09-.45h9.7c-.37-2.74-1-3.14-5.71-3.89.31-2.41.08-4.74-2.73-5.63-1.56-.5-2.73.41-3.61,1.54C-70.3-408.83-68.51-407.18-67.59-405.62Zm4.57,6.69-.66-.1-8.15,7.5c1.7,3.08,3.57,5.85,4.78,8.87s1.79,6.44,2.7,9.65a4.93,4.93,0,0,0,.94,1.3l.39-.2Zm29.58,64c-.6-.06-1.08-.14-1.56-.14-3.74,0-7.48-.15-11.22-.06a2.12,2.12,0,0,1-2.52-2.1c-.54-3.31-1.08-6.63-1.7-9.93-.42-2.27-1-4.52-1.45-6.77l-.5.09c.43,5.49.76,11,1.32,16.47.2,1.87-.42,2.46-2.12,2.24-1.5-.19-2.08.53-2.12,1.94a15.48,15.48,0,0,1-.22,1.75c.54.06,1,.16,1.39.16,5.2,0,10.41-.19,15.6.05C-35.67-331.13-34.46-332.58-33.44-335ZM-76.1-341.2l6.5,6.43c2.09,2,2.11,2.15.6,4.77l6.36,2.15-.21-.67c.87-.64,1.76-1.25,2.61-1.92a11.49,11.49,0,0,0,2.76-2.39c.86-1.36.17-2.25-1.47-2.28-1.9,0-3.8,0-5.7-.05h-3.06l-.07-.56,2.69-1.44-7.45-7.79Zm11.93,1.68c1-5.05,1.63-28.07.52-29.93-.4,8.42-2.72,16.18-7.84,23.07Zm-26.36,5.22a6.29,6.29,0,0,0-1.94-.25,39,39,0,0,1-16.17.21,9.36,9.36,0,0,0-2.89.46A12.43,12.43,0,0,0-90.53-334.3Zm202.69,8.4H90.08C95.56-321.66,106.8-321.69,112.16-325.9ZM-82.21-336.58c3.46,1.81,6.71,3.55,10,5.2.4.2,1.44,0,1.52-.2a2.07,2.07,0,0,0-.14-1.77c-2.12-2.33-4.35-4.55-6.53-6.8Zm-48.4,5.1c3.57,1.42,7.43-.34,10.8-5l-3.75-2.66ZM90.68-319.33c3.33,2,6.18,1.37,8.3-1.75A7.48,7.48,0,0,0,90.68-319.33Zm-54.63-52.6V-382C32.87-379.48,32.84-375.22,36.05-371.93Zm80.07,46.61c-4.11.88-5.1,4.56-7.55,7.14A8.88,8.88,0,0,0,116.12-325.32Zm5.72-.76c3.26-2.1,4.34-5.66,2.47-8.14C122.72-332.33,122.72-332.33,121.84-326.08ZM45-372.25c2.8-1.95,3-7.66,0-9.49ZM-98.49-335c.3-3.37,0-3.83-1.76-3.84-2.14,0-3.12.72-2.6,2.55C-102.16-333.9-100-335.79-98.49-335Zm208.74,12.3c-3.81.13-5.29,3.21-7.6,5.38C105.7-317.1,108.54-319.15,110.25-322.73ZM87.89-324.5c-2.35-2.22-3.38-2.2-7.12.13C83.51-322.47,85.44-322.5,87.89-324.5Zm-23.8-7.35c4,.34,6-.8,6.58-3.67A7,7,0,0,0,64.09-331.85Zm-192.82,6.48c-1.79,1.53-2.31,3.88-1.07,5.15.66.66,2,.68,3,1l.42-.66ZM130-336.84c2.09-2.55,2-6.09-.13-7.37C128.17-340.59,128.17-340.59,130-336.84ZM-6.14-325.45c-2.94-.62-4.53.06-5.84,2.43C-9-321.4-7.53-322-6.14-325.45Zm122.52,3.54a7.75,7.75,0,0,0,4.49-7.72C117.89-327.93,117.16-324.95,116.38-321.91Zm-12.11.71c-3.56-.79-5,2.1-7.48,3.94A6.93,6.93,0,0,0,104.27-321.2Zm28.58-21c2-3.13,1.79-5.23-.58-7C129.63-346.77,131.83-344.61,132.85-342.23ZM85.39-321.86c2.93,2.14,4.75,1.95,7.12-.5C90-325.23,87.93-322.54,85.39-321.86Zm42.06-17.51c-2.39,2.43-1.6,4.93-.62,7.52C128.88-334.11,129.07-336.51,127.45-339.37Zm-190,13.45c-2.59-1.44-3.52-1.19-6.13,1.52C-65.84-322.59-64.87-322.81-62.53-325.92Zm33-5.54c3.74.37,5.82-.08,7.11-1.46C-24.81-334.64-27.57-334.12-29.56-331.46Zm106.48,3.8c1.68,2.35,4.41,2.36,6.54.32C81.47-330.28,79.33-327.52,76.92-327.66Zm-143.71.33c-2.56-1.52-4-1.25-6.72,1.12C-71-324.61-68.93-325.71-66.79-327.33Zm142.32-5.41c-2.75-2.61-4.6-2-5.64,1.75C72.08-330.47,73.76-331.43,75.53-332.74Zm-92.4,7.07c2.6,2.18,4.46,1.82,6.08-1C-13.24-328.73-14.73-326-16.87-325.67Zm-1.63-4.83c-2.48-2.73-4.34.38-6.95.1C-22.36-328.2-21.07-328.28-18.5-330.5ZM-121.79-332c-2.67,1.66-2.83,2.49-1.27,6C-121.21-327.34-120.83-329-121.79-332Zm-3.5,3-2.75,2.88,2.22,3.31C-123.86-324.82-124.73-326.72-125.29-329Zm198.76-.35a8,8,0,0,0,6.56-.36l-2.82-2.19c-1.19.67-2.29,1.27-3.38,1.9C73.74-330,73.71-329.83,73.47-329.39Zm-191.94-5.42c-2.51,1.53-2.57,1.85-1.35,6.07C-117.71-330.41-117.39-331.8-118.47-334.81ZM38.37-326c-2.29-1.48-3.76.59-5.71,1.08C34.87-322.48,36.5-322.84,38.37-326ZM-71.48-329.1c-2.2-1.51-3.65-1.33-6.34.75C-76-327-73.62-327.29-71.48-329.1Zm8,6.35c2.51,1.56,4.24.61,4.63-2.54C-60.86-326-61.47-325.65-63.47-322.75Zm55.93,1.28c3.62-.21,5.28-1.5,5.77-4.09C-5-326.3-5.44-323.11-7.54-321.47ZM137.1-352.14c-1.09-.06-2.15-.09-3.19-.18-1.2-.11-1.39.58-.94,1.38a35.36,35.36,0,0,0,2.29,3.18C136-349.39,136.53-350.76,137.1-352.14ZM42-325.77c-2.59-.13-3.27,2.29-5.18,3.34C40.31-321.26,41.27-321.92,42-325.77Zm-131.51-9.82c2.4,2.41,4,2.36,6.07.15C-85.33-338.24-87.2-335.23-89.48-335.59Zm69.15,7.94c1.57,1.44,3.7,1.15,5.6-.64C-16.34-330-16.78-329.93-20.33-327.65Zm-38.23,5.57a4.38,4.38,0,0,0,4.63-3.19C-56.95-325.9-57-325.86-58.56-322.08Zm-20.86-11c-2.23-1.77-1.77-2-5.67.58C-83.43-331.21-81.65-331.39-79.42-333.07Zm-32.45-6.61c-2,1.14-2.31,2.58-1.2,5.29C-110.88-335.81-110.59-337-111.87-339.68ZM-75.7-331c-1.86-1.74-2.84-1.61-5.63.75C-79.77-329.1-77.46-329.41-75.7-331Zm95.47-.61.27.49,4.84-2.63C22.17-335.86,22.06-335.81,19.77-331.66Zm113.31-22.56c.33-2.06.61-3.73.95-5.87C130.74-358.11,130.17-356.73,133.08-354.22Zm-248.49,17.08c-2.22,1.32-2.22,1.32-1,5.19C-114.4-333.17-114.12-334.56-115.41-337.14ZM-92.3-345c-.91.53-2,.85-2.43,1.55-.27.41.47,2.12.63,2.1a17.22,17.22,0,0,0,3.18-.92Zm-11.3,4.49c.58-2.9.55-2.94-2.22-3.15C-106.95-341.06-106.55-340.45-103.6-340.52Zm16.87,2.6c-2.17-2.43-3.75.53-6.13.21C-90.47-336.06-88.86-336.21-86.73-337.92ZM26-328.62c2.23,1,3.75-.13,5.46-.87C29.73-331.29,28.34-331.07,26-328.62Zm3.54,1.88c1.55,1.19,3.06.95,5.35-.85C32.41-329.46,33.23-328.88,29.53-326.74ZM-33-331.13l5.86-3.94C-29.8-335.74-32-334.53-33-331.13Zm167.82-32.4-.52-.5c-3,1-3.87,2.14-3.25,4.86Zm-106.92,32c-1.73-2.09-3.58-1.44-5,1.75ZM131.79-364.6c5.84-2.36,5.1-1.82,5-3.8C134.89-367.51,132.76-367.18,131.79-364.6Zm4.37,7.71-.66-.12c-.47,1-.94,1.94-1.42,2.91l.38.5,3.32-.49ZM-98.06-343.66l-.49.44a17.09,17.09,0,0,0,.76,2.7c.06.14,1.54,0,1.6-.28a2.91,2.91,0,0,0-.18-2.1C-96.63-343.33-97.47-343.42-98.06-343.66Zm233.9-15.13c1.23,1,2.22,1.36,3.17,0,.75-1.06.22-1.68-.63-2.25Zm-89.21,33.1c-3.1,0-3.69.62-4.12,3.59l.47.47ZM-109.65-337.1l.57.28,1.6-2.27-3-1.43Zm9.87-3.37c.34-2.75.16-3-1.91-2.62v2.62ZM16.11-332l.65.66a5.54,5.54,0,0,0,3.13-3.48l-.38-.4Zm-125.89-12.6.56,3c.44-.27,1.15-.45,1.28-.83C-107.59-343.41-107.39-344.57-109.78-344.59Zm12.68,6c.29,1.23.24,2.33.75,2.77s1.51-.05,2.61-.14a7.43,7.43,0,0,0-.8-.91C-95.24-337.36-96-337.83-97.1-338.58Zm2.13-.79c2,1,3.73.57,5.34-1.3Zm235.68-19c-2.67,1.95-2.67,1.95-1.43,3.3C140.3-355.91,141.63-356.61,140.71-358.38Zm-245.28,22.93.18-2.57-3,1.74.09.44Zm243.68-17.78.46.69a11.3,11.3,0,0,0,2.12-1.23c.31-.28.24-1,.33-1.48l-.43-.17ZM-87-331.38c-2.26-2.05-2.57-2.05-3.37,0Z" transform="translate(500 480)"/><path d="M100.38-409.12H58.87a3.3,3.3,0,0,1-1.84-.25c-.83-.64-1.93-1.49-2-2.36a3.64,3.64,0,0,1,1.38-2.78,5.31,5.31,0,0,1,3.06-.66q35.42,0,70.83,0h12.18c2.13.09,3.63,1.39,3.6,3.14s-1.55,2.89-3.59,2.91q-6.57.07-13.14.07H100.38Z" transform="translate(500 480)"/><path d="M14.47-418.23a36.35,36.35,0,0,0,3.93,0c.5-.06.91-.7,1.41-1,.83-.44,2-1.32,2.48-1.05a4.17,4.17,0,0,1,1.64,2.6,10.93,10.93,0,0,1-.43,3.36c-2.49,0-4.95.05-7.41,0-1.31,0-1.88.41-1.76,1.74a12.06,12.06,0,0,1,0,1.7c-.08,1.27.41,1.85,1.75,1.81,1.9-.05,3.81.09,5.71.06,1.35,0,2,.48,2,1.88s-.51,2-1.89,1.94c-2.34,0-4.69,0-7,0-2.94-.08-4.12-1.31-4.16-4.24s0-5.58.05-8.37c0-1-.66-2.45,1.27-2.61C13.58-420.61,14.62-420.17,14.47-418.23Zm8.73.18-1.54-1.23c-.34.48-1,1-.92,1.41s.74.93,1.24,1.07C22.21-416.74,22.66-417.47,23.2-418Z" transform="translate(500 480)"/><path d="M-17-408.8c2.11-.57,3.91-.9,5.6-1.55,2.08-.79,2.75-2.72,3-4.72,0-.39-.67-1.21-1.09-1.25-1.55-.15-3.13-.06-4.84-.06-.09,1.05-.17,1.92-.25,2.79-2.46,1.19-3.51.67-3.43-1.85.18-5.22-1-4.6,4.63-4.64,2.41,0,4.83.06,7.24,0,1.36-.05,1.77.45,1.7,1.77-.21,3.75-.22,7.54-3.34,10.34-2.4,2.14-5.3,2.58-8.35,2.4-.31,0-.76-.61-.83-1A11.59,11.59,0,0,1-17-408.8Z" transform="translate(500 480)"/><path d="M51.28-404.69l-4.63-3.67a47.25,47.25,0,0,1-4.95,2.57c-3.23,1.24-3.76.77-3.48-2.88,4-.7,7-2.66,7.83-7.31-2,0-3.86-.06-5.72,0-1.55.07-1.73-.81-1.77-2s.45-1.83,1.78-1.8c2.73.07,5.46,0,8.19,0,1,0,1.43.33,1.33,1.33a41.3,41.3,0,0,0-.43,5.3,4.36,4.36,0,0,0,1,3c1.74,1.45,1.59,3.14,1.37,5Z" transform="translate(500 480)"/><path d="M-1.22-405.33c-2,.06-3.06-1.46-2.15-3.23.17-.32.79-.51,1.23-.56,6.16-.6,7.71-2,8.59-8,.25-1.75,1.47-1.18,2.45-1.24,1.23-.08,1.29.72,1.16,1.63a30.06,30.06,0,0,1-.42,3C8.36-408.22,4.84-405.52-1.22-405.33Z" transform="translate(500 480)"/><path d="M31.39-411.41c-1.78,0-3.55,0-5.33,0-1,0-1.63-.21-1.51-1.37s-.44-2.45,1.3-2.67a21.21,21.21,0,0,1,2.65-.09c2.53,0,5.06,0,7.6,0,1.24,0,2.42-.06,2.39,1.82,0,1.56-.2,2.55-2.16,2.33a45.19,45.19,0,0,0-4.94,0Z" transform="translate(500 480)"/><path d="M-3.34-420.08H2.82c1.06,0,1.49.53,1.39,1.56s.38,2.34-1.33,2.39-3.3.09-4.95,0S-4-417.14-3.34-420.08Z" transform="translate(500 480)"/><path d="M-111.72-368.36a8,8,0,0,1,8.16,7.61,8,8,0,0,1-7.94,8.24,8,8,0,0,1-8.18-7.8A8.12,8.12,0,0,1-111.72-368.36Z" transform="translate(500 480)"/><path d="M-81.94-360.63a8.09,8.09,0,0,1-8,7.91,7.91,7.91,0,0,1-8-7.92,8.15,8.15,0,0,1,8.07-7.93A7.93,7.93,0,0,1-81.94-360.63Z" transform="translate(500 480)"/><path d="M-100.85-354.27A3.43,3.43,0,0,1-97.31-351a3.9,3.9,0,0,1-3.73,3.58,3.79,3.79,0,0,1-3.33-3.77A3.48,3.48,0,0,1-100.85-354.27Z" transform="translate(500 480)"/></g></svg>